<?xml version="1.0" encoding="utf-8"?>
<!-- Generator: Adobe Illustrator 16.0.3, SVG Export Plug-In . SVG Version: 6.00 Build 0)  -->
<!DOCTYPE svg PUBLIC "-//W3C//DTD SVG 1.1//EN" "http://www.w3.org/Graphics/SVG/1.1/DTD/svg11.dtd">
<svg version="1.1" id="Layer_1" xmlns="http://www.w3.org/2000/svg" xmlns:xlink="http://www.w3.org/1999/xlink" x="0px" y="0px"
	 width="51.397px" height="103.417px" viewBox="48.667 22.033 51.397 103.417"
	 enable-background="new 48.667 22.033 51.397 103.417" xml:space="preserve">
<g>
	<path fill="#B3B3B3" d="M76.38,98.964l7.488-24.293H64.862l7.469,24.293H76.38L76.38,98.964z M84.477,72.635l7.49-24.294h-9.504
		l-4.051,12.148l-4.049-9.105l-4.051,9.105l-4.047-12.148h-9.504l7.471,24.294h6.084l4.049-9.105l4.049,9.105H84.477 M76.38,72.635
		v-2.014h-4.051v2.014H76.38 M92.577,46.327l1.572-5.057H83.471v-5.076H95.7l1.238-4.049H83.471v-5.057h15.021l1.57-5.056H75.374
		v24.294H92.577 M73.36,46.327V34.181h-8.119v5.057h3.041v2.035h-4.385l-4.721-14.184h9.104v1.008h5.078v-6.063H48.667l7.471,24.294
		H73.36 M77.387,109.098l9.125,6.063l0.021-0.104l0.084-0.629l0.043-0.609l0.02-0.629l-0.02-0.607l-0.043-0.631l-0.064-0.586
		l-0.104-0.609l-0.125-0.588l-0.355-1.133l-0.439-1.109l-0.547-1.051l-0.314-0.48l-0.336-0.502l-0.354-0.463l-0.398-0.461
		l-0.398-0.422l-0.418-0.42l-0.439-0.396l-0.461-0.377l-0.482-0.336l-0.504-0.336l-0.523-0.313l-0.523-0.271l-0.547-0.254
		l-0.563-0.229l-0.59-0.211l-0.607-0.168l-0.607-0.146l-0.607-0.104l-1.09-0.127l-1.092-0.041l-1.049,0.063l-1.027,0.146
		l-1.027,0.229l-0.965,0.314l-0.967,0.398l-0.9,0.461l-0.859,0.564l-0.818,0.607l-0.756,0.691l-0.713,0.756l-0.648,0.84
		l-0.566,0.881l-0.521,0.943l-0.422,1.008l12.506,8.455h-4.057l-9.104-6.064l-0.021,0.104l-0.084,0.633l-0.064,0.605l-0.02,0.629
		l0.02,0.607l0.043,0.607l0.084,0.609l0.084,0.605l0.146,0.588l0.336,1.135l0.439,1.111l0.564,1.023l0.314,0.504l0.334,0.506
		l0.355,0.461l0.379,0.463l0.396,0.42l0.42,0.42l0.439,0.395l0.482,0.379l0.461,0.336l0.504,0.336l0.521,0.314l0.545,0.271
		l0.547,0.252l0.564,0.23l0.588,0.209l0.586,0.168l0.607,0.146l0.629,0.104l1.092,0.125l1.07,0.041l1.049-0.063l1.049-0.146
		l1.008-0.229l0.984-0.314l0.943-0.396l0.9-0.463l0.859-0.564l0.816-0.607l0.777-0.691l0.689-0.775l0.648-0.814l0.588-0.885
		l0.506-0.941l0.438-1.01l-12.504-8.451h4.031l0,0H77.387z"/>
</g>
</svg>
