<?xml version="1.0" encoding="utf-8"?>
<!-- Generator: Adobe Illustrator 16.0.3, SVG Export Plug-In . SVG Version: 6.00 Build 0)  -->
<!DOCTYPE svg PUBLIC "-//W3C//DTD SVG 1.1//EN" "http://www.w3.org/Graphics/SVG/1.1/DTD/svg11.dtd">
<svg version="1.1" id="Layer_1" xmlns="http://www.w3.org/2000/svg" xmlns:xlink="http://www.w3.org/1999/xlink" x="0px" y="0px"
	 width="148.977px" height="148.536px" viewBox="0 0 148.977 148.536" enable-background="new 0 0 148.977 148.536"
	 xml:space="preserve">
<g>
	<polygon fill="#132727" points="22.259,123.907 22.112,124.137 21.966,124.368 21.798,124.872 21.714,125.417 21.756,125.961 
		21.882,126.528 22.112,127.073 22.427,127.577 22.868,128.06 23.162,128.333 23.497,128.563 23.812,128.752 24.168,128.898 
		24.504,129.004 24.861,129.088 25.217,129.108 25.574,129.108 25.952,129.045 26.308,128.961 26.665,128.856 27.022,128.689 
		27.378,128.479 27.735,128.249 28.071,127.976 28.385,127.661 28.847,127.137 29.204,126.654 29.434,126.172 29.602,125.625 
		29.707,125.144 29.749,124.682 29.728,124.221 29.644,123.78 29.497,123.381 29.288,122.982 29.015,122.605 28.679,122.249 
		28.364,121.976 28.05,121.745 27.714,121.556 27.378,121.409 27.022,121.305 26.665,121.241 26.308,121.241 25.931,121.262 
		26.455,120.381 25.952,119.898 23.057,122.92 25.532,125.29 26.162,124.64 24.399,122.961 24.819,122.584 25.259,122.29 
		25.721,122.122 26.162,122.038 26.623,122.06 27.064,122.206 27.504,122.438 27.924,122.772 28.322,123.213 28.469,123.465 
		28.595,123.695 28.679,123.948 28.742,124.2 28.763,124.452 28.763,124.704 28.742,124.976 28.658,125.228 28.448,125.772 
		28.091,126.318 27.609,126.885 27.084,127.346 26.56,127.724 26.015,127.956 25.763,128.04 25.49,128.081 25.217,128.102 
		24.966,128.081 24.714,128.04 24.462,127.976 24.21,127.872 23.979,127.745 23.518,127.389 23.225,127.053 22.994,126.738 
		22.826,126.381 22.742,126.045 22.7,125.689 22.742,125.333 22.847,124.976 23.015,124.64 	"/>
	<polygon fill="#132727" points="18.965,123.801 24.987,118.829 21.315,114.381 20.581,114.989 23.581,118.598 21.588,120.234 
		18.86,116.961 18.147,117.569 20.854,120.842 19.028,122.374 16.07,118.808 15.336,119.417 	"/>
	<polygon fill="#132727" points="14.119,117.821 20.686,113.563 20.12,112.702 14.602,116.29 18.923,110.856 18.357,109.976 
		11.644,111.695 17.161,108.129 16.616,107.269 10.049,111.506 10.867,112.766 17.623,111.066 13.28,116.521 	"/>
	<polygon fill="#132727" points="8.958,109.452 15.965,106.01 13.427,100.85 12.588,101.249 14.644,105.465 12.315,106.598 
		10.448,102.779 9.608,103.2 11.476,107.017 9.336,108.066 7.301,103.913 6.441,104.333 	"/>
	<polygon fill="#132727" points="5.644,102.401 12.986,99.715 10.993,94.304 10.112,94.618 11.728,99.023 9.294,99.926 
		7.825,95.918 6.944,96.254 8.392,100.241 6.168,101.059 4.573,96.715 3.671,97.051 	"/>
	<polygon fill="#132727" points="3.084,95.122 10.679,93.254 10.427,92.247 4.301,93.758 9.483,88.387 9.189,87.233 1.615,89.101 
		1.846,90.107 7.993,88.597 2.79,93.904 	"/>
	<polygon fill="#132727" points="2.728,80.959 2.182,81.107 1.699,81.317 1.49,81.463 1.301,81.61 1.133,81.799 1.007,81.988 
		0.776,82.45 0.65,82.995 0.608,83.583 0.65,84.275 0.776,84.862 0.965,85.366 1.238,85.807 1.552,86.163 1.93,86.436 2.371,86.625 
		2.854,86.709 3.378,86.688 3.797,86.583 4.154,86.415 4.448,86.185 4.679,85.87 4.804,85.661 4.888,85.43 4.993,84.946 
		5.203,82.765 5.329,82.157 5.413,81.926 5.539,81.736 5.686,81.569 5.853,81.443 6.042,81.359 6.294,81.317 6.629,81.317 
		6.902,81.379 7.154,81.526 7.364,81.758 7.553,82.051 7.699,82.387 7.804,82.745 7.888,83.143 7.93,83.625 7.888,84.065 
		7.783,84.443 7.636,84.778 7.406,85.051 7.112,85.262 6.776,85.43 6.356,85.534 6.503,86.52 6.944,86.436 7.301,86.331 
		7.574,86.206 7.846,86.017 8.077,85.807 8.308,85.534 8.497,85.219 8.644,84.926 8.77,84.547 8.833,84.107 8.833,83.604 
		8.791,83.079 8.665,82.409 8.455,81.799 8.203,81.295 7.867,80.897 7.699,80.729 7.49,80.583 7.28,80.458 7.07,80.374 
		6.818,80.311 6.587,80.29 6.042,80.29 5.665,80.374 5.329,80.499 5.035,80.688 4.762,80.918 4.553,81.191 4.385,81.506 
		4.28,81.883 4.217,82.282 3.965,84.736 3.881,85.094 3.818,85.241 3.713,85.366 3.587,85.471 3.44,85.555 3.105,85.661 
		2.79,85.681 2.518,85.618 2.266,85.513 2.056,85.325 1.867,85.094 1.72,84.82 1.615,84.463 1.532,84.086 1.511,83.667 1.532,83.29 
		1.636,82.954 1.783,82.661 1.972,82.409 2.224,82.198 2.518,82.051 2.875,81.967 	"/>
	<polygon fill="#132727" points="2.497,72.61 1.951,72.715 1.469,72.946 1.028,73.24 0.671,73.639 0.377,74.1 0.168,74.646 
		0.042,75.211 0,75.842 0.021,76.26 0.084,76.661 0.189,77.038 0.314,77.374 0.482,77.688 0.692,78.002 0.923,78.254 1.175,78.506 
		1.469,78.715 1.783,78.904 2.119,79.073 2.497,79.198 2.895,79.303 3.315,79.366 3.776,79.409 4.238,79.409 4.7,79.387 
		5.119,79.344 5.539,79.241 5.916,79.135 6.273,78.988 6.609,78.82 6.902,78.61 7.175,78.401 7.427,78.149 7.636,77.875 
		7.825,77.583 7.972,77.268 8.098,76.933 8.182,76.577 8.224,76.198 8.224,75.799 8.161,75.148 7.993,74.541 7.72,73.995 
		7.553,73.764 7.364,73.534 7.154,73.324 6.923,73.135 6.377,72.841 5.77,72.61 5.077,72.464 5.098,73.492 5.581,73.618 
		6.021,73.785 6.398,73.995 6.692,74.247 6.944,74.541 7.112,74.877 7.238,75.254 7.28,75.674 7.238,76.282 7.091,76.786 
		6.986,77.017 6.86,77.247 6.692,77.436 6.503,77.604 6.294,77.771 6.063,77.897 5.518,78.127 4.888,78.254 4.154,78.317 
		3.461,78.295 2.833,78.17 2.287,77.981 1.825,77.688 1.636,77.52 1.469,77.331 1.301,77.122 1.196,76.891 1.091,76.639 
		1.007,76.387 0.965,76.114 0.944,75.82 0.965,75.4 1.028,75.023 1.154,74.666 1.343,74.373 1.574,74.121 1.846,73.911 
		2.161,73.743 2.518,73.639 	"/>
	<polygon fill="#132727" points="0.209,70.723 7.993,71.415 8.098,70.345 4.468,70.03 4.825,65.981 8.455,66.316 8.56,65.247 
		0.776,64.554 0.671,65.604 3.881,65.897 3.524,69.946 0.314,69.652 	"/>
	<path fill="#132727" d="M1.552,60.148l7.091,4.427l0.21-1.07l-2.077-1.259l0.629-3.063l2.371-0.294l0.231-1.154l-8.203,1.238
		L1.552,60.148L1.552,60.148z M2.79,59.813l3.607-0.441l-0.481,2.35L2.79,59.813L2.79,59.813z"/>
	<path fill="#132727" d="M2.79,54.652l7.469,2.329l0.314-1.028l-3.147-0.986l0.797-2.518l0.083-0.42v-0.44L8.224,51.19l-0.168-0.377
		l-0.252-0.357L7.49,50.162l-0.379-0.251l-0.439-0.189L6.21,49.638l-0.419-0.021l-0.42,0.084l-0.398,0.147l-0.355,0.21l-0.294,0.294
		l-0.231,0.356l-0.189,0.398L3.86,51.253L2.79,54.652L2.79,54.652z M6.567,54.694l-2.581-0.797l0.651-2.056l0.125-0.336l0.147-0.272
		l0.188-0.231l0.188-0.147l0.23-0.104l0.252-0.063l0.272,0.021l0.313,0.063l0.294,0.125l0.231,0.147l0.188,0.189l0.146,0.209
		l0.084,0.231l0.021,0.272l-0.021,0.294l-0.063,0.315L6.567,54.694L6.567,54.694z"/>
	<polygon fill="#132727" points="6.189,44.875 14.455,45.757 14.958,44.729 9.189,38.729 8.644,39.819 13.679,44.729 6.713,43.827 	
		"/>
	<path fill="#132727" d="M11.161,35.456l5.076,6.629l0.588-0.923l-1.49-1.909l1.636-2.644l2.35,0.545l0.608-0.986l-8.119-1.72
		L11.161,35.456L11.161,35.456z M12.441,35.603l3.524,0.839l-1.259,2.035L12.441,35.603L12.441,35.603z"/>
	<polygon fill="#132727" points="14.203,30.798 20.329,35.623 20.979,34.826 16.007,30.903 23.434,31.7 24.168,30.756 
		18.042,25.931 17.392,26.728 22.364,30.651 14.979,29.812 	"/>
	<polygon fill="#132727" points="21.294,22.238 28.008,26.687 28.868,25.931 25.889,19.91 31.532,23.539 32.372,22.805 28.7,15.609 
		27.819,16.385 30.966,22.112 25.427,18.546 24.567,19.301 27.483,25.239 22.154,21.441 	"/>
	<polygon fill="#132727" points="30.126,14.728 34.742,21.021 35.603,20.392 30.987,14.099 	"/>
	<polygon fill="#132727" points="38.791,11.728 38.435,11.287 38.246,11.098 38.036,10.931 37.595,10.7 37.365,10.616 
		37.134,10.574 36.63,10.574 36.085,10.658 35.519,10.868 34.91,11.203 34.428,11.56 34.029,11.938 33.756,12.357 33.567,12.818 
		33.462,13.28 33.483,13.742 33.609,14.224 33.861,14.686 34.113,15.021 34.407,15.273 34.742,15.441 35.12,15.525 35.372,15.546 
		35.623,15.546 36.106,15.441 38.183,14.728 38.498,14.644 38.77,14.581 39.022,14.56 39.253,14.602 39.442,14.665 39.63,14.77 
		39.798,14.917 39.924,15.105 40.071,15.399 40.134,15.693 40.113,15.986 39.987,16.28 39.798,16.574 39.547,16.847 39.253,17.099 
		38.938,17.329 38.498,17.56 38.099,17.707 37.721,17.77 37.344,17.77 37.008,17.665 36.672,17.497 36.4,17.245 36.127,16.931 
		35.267,17.455 35.54,17.833 35.791,18.105 36.022,18.315 36.295,18.462 36.609,18.609 36.945,18.693 37.302,18.756 37.638,18.756 
		38.015,18.693 38.456,18.567 38.896,18.378 39.357,18.126 39.924,17.707 40.386,17.287 40.742,16.847 40.973,16.385 41.099,15.903 
		41.12,15.672 41.12,15.42 40.994,14.938 40.763,14.476 40.533,14.161 40.281,13.91 39.987,13.7 39.672,13.574 39.336,13.49 
		38.98,13.469 38.603,13.511 38.204,13.616 35.854,14.413 35.498,14.497 35.183,14.434 35.036,14.371 34.889,14.287 34.658,13.994 
		34.533,13.742 34.47,13.469 34.47,13.196 34.533,12.923 34.658,12.651 34.868,12.399 35.12,12.168 35.456,11.938 35.813,11.728 
		36.169,11.602 36.525,11.539 36.84,11.56 37.155,11.623 37.449,11.77 37.7,11.979 37.931,12.273 	"/>
	<polygon fill="#132727" points="39.399,8.77 42.819,15.798 43.785,15.336 42.588,12.86 43.134,11.266 47.33,13.595 48.568,12.986 
		43.533,10.259 45.001,6.042 43.743,6.651 42.022,11.707 40.365,8.308 	"/>
	<polygon fill="#132727" points="46.512,5.434 48.316,10.448 48.442,10.763 48.63,11.077 48.862,11.35 49.113,11.602 49.407,11.812 
		49.743,12 50.078,12.126 50.435,12.189 50.813,12.21 51.19,12.168 51.61,12.084 52.029,11.958 52.68,11.686 53.204,11.329 
		53.435,11.119 53.624,10.909 53.792,10.679 53.938,10.427 54.043,10.175 54.127,9.924 54.211,9.378 54.19,8.833 54.064,8.308 
		52.281,3.357 51.295,3.713 52.995,8.476 53.016,8.56 53.099,8.896 53.162,9.231 53.141,9.566 53.058,9.881 52.911,10.196 
		52.701,10.469 52.449,10.7 52.134,10.909 51.778,11.056 51.337,11.182 50.938,11.203 50.561,11.161 50.204,11.035 49.89,10.826 
		49.617,10.553 49.386,10.196 49.197,9.776 47.498,5.077 	"/>
	<polygon fill="#132727" points="54.463,2.707 56.247,10.322 57.253,10.07 55.806,3.923 61.134,9.168 62.289,8.896 60.484,1.28 
		59.478,1.511 60.946,7.679 55.68,2.413 	"/>
	<path fill="#132727" d="M62.75,0.881l0.923,7.763l3.272-0.377l0.335-0.063l0.314-0.105l0.315-0.126l0.271-0.147l0.252-0.188
		l0.23-0.231l0.23-0.251l0.189-0.273l0.146-0.293l0.146-0.336l0.104-0.336l0.084-0.377l0.063-0.377l0.021-0.398v-0.42l-0.042-0.44
		l-0.063-0.42L69.44,3.088l-0.125-0.377L69.17,2.35l-0.168-0.335L68.813,1.72l-0.229-0.271l-0.252-0.231l-0.356-0.272l-0.378-0.21
		L67.22,0.63l-0.441-0.105L66.36,0.504h-0.377L62.75,0.881L62.75,0.881z M64.617,7.616l-0.692-5.958l1.867-0.209l0.545-0.021
		l0.503,0.084L67.26,1.7l0.377,0.273l0.315,0.377l0.251,0.483l0.188,0.566l0.126,0.65l0.042,0.588l-0.021,0.545l-0.084,0.503
		l-0.126,0.419l-0.126,0.251l-0.146,0.231l-0.167,0.19l-0.168,0.189l-0.21,0.147l-0.209,0.104L67.093,7.3l-0.231,0.042L64.617,7.616
		L64.617,7.616z"/>
	<polygon fill="#132727" points="71.184,0.042 71.247,7.846 77.016,7.805 76.996,6.86 72.317,6.902 72.295,4.301 76.555,4.28 
		76.533,3.315 72.274,3.357 72.253,0.986 76.891,0.944 76.891,0 	"/>
	<polygon fill="#132727" points="82.219,0.356 81.129,8.098 86.834,8.917 86.961,7.972 82.324,7.322 82.68,4.742 86.896,5.35 
		87.023,4.406 82.807,3.818 83.143,1.448 87.736,2.098 87.863,1.154 	"/>
	<polygon fill="#132727" points="89.834,1.553 87.904,9.126 88.912,9.378 90.465,3.252 92.771,10.364 93.926,10.637 95.834,3.084 
		94.85,2.811 93.275,8.938 91.051,1.846 	"/>
	<polygon fill="#132727" points="100.996,4.889 98.164,12.168 99.15,12.567 102.002,5.287 	"/>
	<polygon fill="#132727" points="104.059,6.063 100.66,13.091 101.584,13.553 104.332,7.867 105.17,15.273 106.24,15.798 
		109.639,8.77 108.695,8.308 105.947,14.015 105.191,6.609 	"/>
	<polygon fill="#132727" points="111.633,9.902 107.5,16.532 108.422,17.099 110.289,14.099 113.541,16.112 114.045,15.315 
		110.793,13.301 112.031,11.266 115.744,13.574 116.248,12.756 	"/>
	<path fill="#132727" d="M120.443,15.651l-0.336-0.252l-0.354-0.209l-0.357-0.147l-0.354-0.126l-0.379-0.084l-0.355-0.042h-0.379
		l-0.355,0.042l-0.356,0.084l-0.357,0.105l-0.354,0.146l-0.336,0.21l-0.336,0.231l-0.314,0.273l-0.313,0.293l-0.293,0.357
		l-0.252,0.356l-0.232,0.377l-0.188,0.378l-0.146,0.377l-0.105,0.378l-0.084,0.377l-0.021,0.378l0.021,0.377l0.041,0.355
		l0.084,0.356l0.127,0.336l0.168,0.335l0.209,0.336l0.23,0.293l0.295,0.294l0.314,0.272l0.336,0.252l0.354,0.189l0.357,0.167
		l0.356,0.126l0.377,0.084l0.355,0.042h0.379l0.355-0.042l0.356-0.084l0.357-0.105l0.354-0.167l0.336-0.189l0.336-0.231l0.336-0.272
		l0.293-0.314l0.295-0.357l0.271-0.357l0.23-0.377l0.168-0.377l0.146-0.378l0.105-0.377l0.084-0.377l0.021-0.357l-0.021-0.377
		l-0.041-0.356l-0.084-0.357l-0.127-0.357l-0.168-0.335l-0.209-0.315l-0.253-0.314l-0.272-0.272L120.443,15.651L120.443,15.651
		L120.443,15.651z M119.855,16.364l0.232,0.21l0.188,0.209l0.168,0.231l0.148,0.23l0.125,0.252l0.084,0.252L120.842,18l0.021,0.273
		l-0.021,0.566l-0.146,0.566l-0.271,0.566l-0.379,0.587l-0.461,0.503l-0.504,0.399l-0.504,0.272l-0.271,0.105l-0.272,0.063
		l-0.273,0.042l-0.252,0.021l-0.271-0.021l-0.272-0.063l-0.523-0.189l-0.252-0.125l-0.229-0.189l-0.232-0.189l-0.209-0.21
		l-0.168-0.23l-0.125-0.231l-0.127-0.251l-0.084-0.252l-0.041-0.252l-0.021-0.271l0.021-0.566l0.168-0.566l0.252-0.587l0.398-0.567
		l0.438-0.503l0.504-0.398l0.504-0.273l0.546-0.167l0.272-0.042l0.252-0.021l0.271,0.021l0.272,0.063l0.523,0.188l0.231,0.126
		L119.855,16.364L119.855,16.364L119.855,16.364z"/>
	<path fill="#132727" d="M124.766,19.49l-5.496,5.56l0.754,0.755l2.371-2.392l1.91,1.909l0.146,0.168l0.125,0.189l0.084,0.189
		l0.043,0.209v0.293l-0.084,0.273l-0.252,0.335l-0.462,0.503l-0.336,0.377l-0.211,0.273l-0.271,0.335l-0.127,0.231l0.901,0.923
		l0.128-0.126l-0.021-0.188v-0.168l0.041-0.126l0.064-0.125l1.258-1.385l0.272-0.377l0.084-0.189l0.041-0.189l0.021-0.189
		l-0.021-0.189l-0.146-0.461l0.313,0.084l0.273,0.021h0.293l0.252-0.042l0.252-0.104l0.252-0.126l0.252-0.189l0.23-0.209
		l0.252-0.294l0.188-0.315l0.127-0.293l0.063-0.336v-0.23l-0.041-0.252l-0.168-0.503l-0.295-0.503l-0.398-0.482L124.766,19.49
		L124.766,19.49z M124.891,20.896l1.889,1.868l0.021,0.042l0.252,0.294l0.125,0.189l0.064,0.167l0.02,0.21v0.21l-0.063,0.188
		l-0.085,0.21l-0.125,0.21l-0.188,0.21l-0.209,0.188l-0.232,0.126l-0.229,0.084l-0.252,0.021l-0.23-0.021l-0.252-0.084l-0.229-0.147
		l-0.209-0.167l-1.933-1.91L124.891,20.896L124.891,20.896z"/>
	<polygon fill="#132727" points="130.598,25.427 124.473,30.252 125.102,31.071 130.262,27.001 126.443,32.791 127.115,33.63 
		133.641,31.302 128.479,35.351 129.107,36.148 135.234,31.323 134.311,30.147 127.744,32.477 131.543,26.645 	"/>
	<path fill="#132727" d="M137.627,35.099l-8.185,1.574l0.566,0.923l2.371-0.482l1.615,2.665l-1.531,1.846l0.608,0.986l5.183-6.482
		L137.627,35.099L137.627,35.099z M136.955,36.19l-2.351,2.769l-1.237-2.056L136.955,36.19L136.955,36.19z"/>
	<polygon fill="#132727" points="140.102,39.253 139.262,39.651 140.396,42.043 134.207,45.022 134.668,45.987 140.857,43.008 
		142.012,45.4 142.871,44.98 	"/>
	<polygon fill="#132727" points="143.375,46.386 136.115,49.281 136.514,50.267 143.773,47.372 	"/>
	<polygon fill="#132727" points="144.277,56.331 144.76,56.079 145.18,55.722 145.494,55.302 145.746,54.841 145.893,54.316 
		145.955,53.75 145.914,53.142 145.787,52.533 145.641,52.134 145.473,51.778 145.283,51.442 145.053,51.148 144.801,50.896 
		144.529,50.645 144.234,50.456 143.92,50.288 143.584,50.162 143.229,50.058 142.85,50.016 142.451,49.974 142.053,49.994 
		141.633,50.036 141.172,50.12 140.73,50.246 140.291,50.414 139.893,50.582 139.535,50.771 139.199,50.98 138.885,51.232 
		138.611,51.484 138.381,51.757 138.172,52.05 138.004,52.344 137.879,52.659 137.773,52.995 137.711,53.351 137.711,53.687 
		137.711,54.064 137.773,54.442 137.879,54.82 138.129,55.449 138.445,55.974 138.633,56.205 138.844,56.414 139.074,56.603 
		139.326,56.771 139.871,57.022 140.145,57.106 140.459,57.169 141.109,57.232 141.822,57.169 141.529,56.184 141.025,56.205 
		140.563,56.163 140.145,56.058 139.766,55.911 139.451,55.68 139.199,55.407 138.99,55.071 138.822,54.673 138.697,54.106 
		138.676,53.833 138.697,53.561 138.738,53.309 138.801,53.058 138.906,52.827 139.031,52.617 139.199,52.407 139.389,52.197 
		139.85,51.841 140.416,51.547 141.109,51.295 141.801,51.127 142.432,51.064 142.996,51.106 143.521,51.253 143.963,51.505 
		144.172,51.673 144.361,51.841 144.508,52.05 144.654,52.281 144.781,52.533 144.885,52.827 144.969,53.226 145.012,53.603 
		144.99,53.98 144.885,54.316 144.738,54.631 144.549,54.904 144.277,55.135 143.963,55.344 	"/>
	<path fill="#132727" d="M147.381,59.708l-8.223-1.405l0.209,1.09l2.393,0.378l0.588,3.063l-2.1,1.175l0.231,1.154l7.133-4.259
		L147.381,59.708L147.381,59.708z M146.354,60.484l-3.146,1.783l-0.461-2.35L146.354,60.484L146.354,60.484z"/>
	<polygon fill="#132727" points="146.605,74.205 147.172,74.121 147.654,73.953 148.074,73.681 148.264,73.513 148.41,73.324 
		148.557,73.135 148.682,72.904 148.871,72.38 148.955,71.792 148.977,71.1 148.914,70.513 148.766,69.967 148.535,69.506 
		148.242,69.128 147.885,68.813 147.465,68.604 146.982,68.478 146.459,68.457 146.039,68.52 145.682,68.646 145.367,68.855 
		145.096,69.149 144.969,69.338 144.863,69.568 144.697,70.03 144.299,72.191 144.215,72.505 144.131,72.778 144.004,73.009 
		143.879,73.198 143.711,73.345 143.543,73.429 143.332,73.513 143.102,73.534 142.766,73.513 142.473,73.429 142.242,73.261 
		142.053,73.009 141.906,72.694 141.779,72.338 141.695,71.981 141.654,71.562 141.676,71.079 141.738,70.66 141.863,70.282 
		142.074,69.967 142.305,69.715 142.619,69.526 142.977,69.4 143.396,69.317 143.354,68.331 142.893,68.373 142.535,68.436 
		142.242,68.562 141.969,68.708 141.695,68.918 141.445,69.17 141.234,69.442 141.066,69.736 140.92,70.093 140.814,70.534 
		140.752,71.016 140.752,71.541 140.836,72.254 140.963,72.862 141.193,73.387 141.465,73.827 141.633,73.995 141.822,74.163 
		142.031,74.289 142.242,74.395 142.473,74.479 142.703,74.541 143.229,74.582 143.627,74.52 143.982,74.436 144.299,74.268 
		144.57,74.059 144.801,73.806 144.99,73.513 145.137,73.156 145.242,72.757 145.703,70.324 145.83,69.988 145.914,69.841 
		146.018,69.736 146.164,69.631 146.313,69.568 146.668,69.484 146.963,69.506 147.234,69.589 147.465,69.736 147.654,69.925 
		147.822,70.156 147.949,70.471 148.031,70.807 148.074,71.205 148.053,71.625 147.99,72.002 147.885,72.338 147.717,72.61 
		147.486,72.841 147.213,73.009 146.898,73.135 146.564,73.198 	"/>
	<polygon fill="#132727" points="148.893,75.484 147.949,75.443 147.801,78.086 140.941,77.667 140.879,78.736 147.738,79.135 
		147.57,81.799 148.514,81.842 	"/>
	<polygon fill="#132727" points="148.348,83.374 143.08,82.513 142.746,82.493 142.389,82.493 142.012,82.555 141.695,82.661 
		141.34,82.807 141.047,83.017 140.773,83.247 140.521,83.521 140.332,83.834 140.164,84.191 140.039,84.59 139.955,85.03 
		139.893,85.745 139.934,86.374 139.996,86.667 140.102,86.939 140.207,87.191 140.375,87.443 140.521,87.653 140.711,87.862 
		141.15,88.198 141.633,88.45 142.137,88.597 147.34,89.437 147.529,88.387 142.514,87.569 142.451,87.547 142.115,87.463 
		141.779,87.338 141.508,87.17 141.256,86.939 141.066,86.667 140.941,86.353 140.857,85.995 140.836,85.639 140.857,85.241 
		140.963,84.82 141.129,84.443 141.361,84.127 141.654,83.897 141.969,83.709 142.367,83.604 142.787,83.583 143.248,83.625 
		148.18,84.422 	"/>
	<path fill="#132727" d="M146.836,91.702l-7.51-2.14l-0.902,3.188l-0.064,0.336l-0.041,0.313v0.336l0.041,0.313l0.086,0.314
		l0.104,0.295l0.148,0.293l0.188,0.295l0.211,0.25l0.25,0.252l0.273,0.23l0.293,0.23l0.336,0.188l0.379,0.188l0.377,0.146
		l0.42,0.146l0.42,0.084l0.398,0.084l0.397,0.021h0.377l0.379-0.021l0.355-0.084l0.336-0.104l0.313-0.126l0.398-0.23l0.313-0.272
		l0.252-0.313l0.253-0.356l0.211-0.378l0.125-0.355L146.836,91.702L146.836,91.702z M139.912,90.842l5.77,1.637l-0.522,1.825
		l-0.189,0.503l-0.271,0.42l-0.148,0.188l-0.188,0.147l-0.397,0.229l-0.482,0.146L142.958,96l-0.588-0.041l-0.65-0.147l-0.566-0.188
		l-0.504-0.229l-0.418-0.272l-0.356-0.272l-0.168-0.209l-0.168-0.231l-0.105-0.209l-0.104-0.252l-0.043-0.23l-0.041-0.23l0.02-0.23
		l0.043-0.23L139.912,90.842L139.912,90.842z"/>
	<polygon fill="#132727" points="144.381,99.799 137.145,96.863 134.982,102.213 135.863,102.569 137.627,98.227 140.018,99.191 
		138.424,103.135 139.305,103.493 140.898,99.547 143.102,100.45 141.361,104.73 142.242,105.086 	"/>
	<polygon fill="#132727" points="141.381,106.913 134.521,103.2 134.018,104.101 139.578,107.122 132.129,107.604 131.563,108.653 
		138.445,112.368 138.928,111.465 133.367,108.465 140.795,108.024 	"/>
	<polygon fill="#132727" points="137.668,113.668 136.871,113.122 135.381,115.304 129.717,111.422 129.107,112.304 
		134.793,116.186 133.283,118.389 134.061,118.913 	"/>
	<polygon fill="#132727" points="133.094,120.172 127.115,115.137 123.402,119.542 124.115,120.15 127.137,116.563 129.129,118.241 
		126.381,121.493 127.094,122.102 129.844,118.85 131.668,120.381 128.689,123.926 129.402,124.536 	"/>
	<polygon fill="#132727" points="128.039,126.004 122.646,120.338 121.891,121.053 126.256,125.625 119.018,123.801 118.156,124.62 
		123.549,130.284 124.305,129.57 119.939,124.976 127.115,126.863 	"/>
	<polygon fill="#132727" points="33.777,126.758 33.043,127.704 32.393,126.696 31.847,127.032 32.561,128.04 31.364,128.396 
		31.574,129.024 32.749,128.647 32.686,129.885 33.357,129.907 33.399,128.668 33.462,128.689 34.344,129.024 34.553,129.088 
		34.721,128.479 33.567,128.124 34.302,127.157 	"/>
	<polygon fill="#132727" points="37.91,129.801 37.427,130.62 39.693,131.982 36.19,137.877 37.113,138.424 40.617,132.528 
		42.903,133.872 43.386,133.053 	"/>
	<polygon fill="#132727" points="43.889,133.325 41.645,138.172 41.54,138.486 41.456,138.844 41.414,139.2 41.414,139.536 
		41.477,139.913 41.582,140.27 41.75,140.605 41.938,140.899 42.19,141.172 42.504,141.424 42.861,141.654 43.26,141.864 
		43.91,142.116 44.225,142.179 44.519,142.221 44.833,142.243 45.127,142.221 45.4,142.179 45.694,142.094 46.176,141.864 
		46.617,141.549 46.995,141.15 47.267,140.689 49.47,135.907 48.505,135.444 46.386,140.06 46.344,140.124 46.155,140.417 
		45.966,140.711 45.714,140.941 45.421,141.109 45.106,141.213 44.771,141.256 44.435,141.256 44.057,141.172 43.701,141.045 
		43.302,140.815 42.987,140.563 42.756,140.249 42.609,139.913 42.525,139.557 42.525,139.159 42.588,138.739 42.756,138.297 
		44.854,133.767 	"/>
	<polygon fill="#132727" points="53.414,137.333 51.232,144.844 56.771,146.459 57.022,145.536 52.533,144.235 53.246,141.739 
		57.337,142.935 57.589,142.032 53.519,140.836 54.169,138.549 58.617,139.85 58.89,138.926 	"/>
	<polygon fill="#132727" points="60.169,139.159 58.533,146.795 59.583,147.025 61.218,139.389 	"/>
	<polygon fill="#132727" points="62.645,139.725 61.617,147.486 62.645,147.612 63.484,141.34 66.589,148.137 67.764,148.305 
		68.792,140.563 67.785,140.417 66.946,146.689 63.904,139.893 	"/>
	<path fill="#132727" d="M70.051,140.647l-0.167,7.805l3.293,0.084l0.336-0.021l0.335-0.042l0.314-0.084l0.294-0.126l0.294-0.146
		l0.251-0.189l0.251-0.209l0.23-0.252l0.188-0.272l0.188-0.315l0.148-0.313l0.146-0.356l0.105-0.377l0.084-0.398l0.041-0.42
		l0.021-0.42v-0.439l-0.043-0.398l-0.063-0.398l-0.105-0.377l-0.125-0.336l-0.146-0.336l-0.189-0.293l-0.209-0.273l-0.314-0.314
		l-0.335-0.252l-0.378-0.168l-0.42-0.146l-0.398-0.104l-0.377-0.041L70.051,140.647L70.051,140.647z M70.953,147.57l0.146-6
		l1.888,0.042l0.546,0.063l0.461,0.146l0.419,0.252l0.168,0.146l0.168,0.189L75,142.827l0.188,0.504l0.104,0.588l0.021,0.649
		l-0.042,0.608l-0.104,0.523l-0.147,0.483l-0.188,0.419l-0.147,0.21l-0.168,0.21l-0.188,0.168l-0.21,0.146l-0.209,0.125
		l-0.231,0.084l-0.229,0.043l-0.231,0.021L70.953,147.57L70.953,147.57z"/>
	<polygon fill="#132727" points="77.395,140.731 78.107,148.515 79.156,148.431 78.842,144.801 82.869,144.424 83.205,148.054 
		84.275,147.969 83.563,140.186 82.492,140.27 82.785,143.479 78.758,143.857 78.463,140.647 	"/>
	<path fill="#132727" d="M88.031,139.137l-0.42,0.105l-0.379,0.125l-0.354,0.168l-0.314,0.209l-0.295,0.211l-0.271,0.252
		l-0.23,0.293l-0.211,0.293l-0.188,0.336l-0.125,0.336l-0.105,0.377l-0.084,0.379l-0.041,0.398v0.42l0.041,0.439l0.084,0.439
		l0.105,0.441l0.146,0.419l0.168,0.378l0.189,0.356l0.209,0.336l0.252,0.294l0.272,0.271l0.293,0.23l0.295,0.188L87.401,147
		l0.336,0.127l0.38,0.084l0.377,0.041l0.377,0.021l0.397-0.021l0.42-0.063l0.42-0.105l0.377-0.146l0.357-0.168l0.313-0.188
		l0.314-0.23l0.252-0.251l0.252-0.294l0.189-0.294l0.188-0.337l0.127-0.334l0.125-0.379l0.063-0.377l0.043-0.42v-0.42l-0.043-0.439
		l-0.082-0.439l-0.105-0.441l-0.146-0.42l-0.168-0.377l-0.189-0.356l-0.209-0.313l-0.252-0.295l-0.272-0.271l-0.293-0.23
		l-0.296-0.188l-0.336-0.168l-0.334-0.126l-0.379-0.084l-0.377-0.043l-0.379-0.02l-0.418,0.02L88.031,139.137L88.031,139.137
		L88.031,139.137z M88.197,140.04l0.296-0.043l0.293-0.021l0.295,0.021l0.271,0.043l0.252,0.084l0.252,0.084l0.23,0.146l0.229,0.147
		l0.211,0.188l0.188,0.188l0.188,0.231l0.146,0.251l0.272,0.588l0.189,0.65l0.084,0.691v0.629l-0.127,0.566l-0.209,0.523
		l-0.314,0.441l-0.188,0.188l-0.211,0.169l-0.23,0.146l-0.252,0.127l-0.271,0.104l-0.273,0.084l-0.313,0.042l-0.273,0.021
		l-0.293-0.021l-0.272-0.042l-0.503-0.168l-0.229-0.147l-0.232-0.146l-0.209-0.188l-0.188-0.189l-0.168-0.229l-0.168-0.273
		l-0.271-0.565l-0.188-0.672l-0.084-0.671l0.021-0.631l0.105-0.565l0.229-0.524l0.293-0.439l0.189-0.188l0.209-0.168l0.229-0.147
		l0.252-0.126l0.273-0.104L88.197,140.04L88.197,140.04L88.197,140.04z"/>
	<polygon fill="#132727" points="91.975,138.486 97.094,145.032 98.184,144.676 98.457,136.347 97.303,136.725 97.283,143.752 
		93.086,138.108 	"/>
	<polygon fill="#132727" points="99.107,136.053 102.297,143.186 107.563,140.836 107.186,139.976 102.904,141.885 101.836,139.536 
		105.738,137.793 105.338,136.935 101.457,138.654 100.492,136.495 104.709,134.605 104.332,133.745 	"/>
	<polygon fill="#132727" points="105.213,133.284 109.156,140.04 110.037,139.515 106.869,134.06 113.479,137.521 114.506,136.913 
		110.584,130.157 109.682,130.682 112.871,136.159 106.303,132.654 	"/>
	<polygon fill="#132727" points="114.717,127.179 115.43,128.124 114.297,128.5 114.465,129.108 115.619,128.689 115.66,129.926 
		116.332,129.885 116.27,128.647 117.443,129.024 117.633,128.396 116.457,128.04 116.5,127.997 117.045,127.221 117.172,127.032 
		116.625,126.696 115.955,127.724 115.24,126.78 	"/>
	<path fill="#D41F29" d="M76.533,99.883l7.489-24.293H65.016l7.469,24.293H76.533L76.533,99.883z M84.631,73.555l7.49-24.294h-9.504
		l-4.05,12.147l-4.049-9.105l-4.049,9.105L66.421,49.26h-9.504l7.469,24.294h6.084l4.049-9.105l4.049,9.105L84.631,73.555
		 M76.533,73.555v-2.014h-4.05v2.014H76.533 M92.73,47.246l1.572-5.056H83.625v-5.077h12.229l1.238-4.049H83.625v-5.056h15.021
		l1.572-5.056H75.527v24.294H92.73 M73.513,47.246V35.099h-8.119v5.057h3.042v2.035h-4.385L59.33,28.008h9.104v1.007h5.077v-6.063
		H48.82l7.47,24.294H73.513 M77.541,110.018l9.125,6.063l0.021-0.104l0.084-0.63l0.043-0.608l0.021-0.629l-0.021-0.607l-0.043-0.631
		l-0.063-0.586l-0.105-0.609l-0.125-0.588l-0.356-1.133l-0.439-1.111l-0.547-1.049l-0.314-0.482l-0.336-0.503l-0.354-0.462
		l-0.398-0.461l-0.399-0.42l-0.418-0.42l-0.441-0.398l-0.461-0.378l-0.482-0.335l-0.504-0.336l-0.524-0.314l-0.523-0.272
		l-0.547-0.253l-0.563-0.229l-0.589-0.211l-0.608-0.167l-0.607-0.147l-0.608-0.104l-1.091-0.126l-1.091-0.042l-1.049,0.063
		l-1.028,0.147l-1.027,0.229l-0.965,0.314l-0.966,0.398l-0.901,0.462l-0.86,0.565l-0.819,0.608l-0.755,0.692l-0.713,0.755
		l-0.649,0.84l-0.566,0.881l-0.523,0.944l-0.421,1.007l12.505,8.454h-4.05l-9.104-6.063l-0.021,0.104l-0.084,0.63l-0.063,0.608
		l-0.021,0.629l0.021,0.607l0.042,0.608l0.084,0.608l0.084,0.607l0.146,0.588l0.336,1.133l0.44,1.112l0.566,1.026l0.314,0.504
		l0.335,0.505l0.356,0.461l0.378,0.462l0.397,0.419l0.42,0.42l0.44,0.397l0.482,0.379l0.462,0.336l0.503,0.335l0.523,0.315
		l0.545,0.271l0.545,0.252l0.566,0.23l0.587,0.209l0.587,0.168l0.608,0.146l0.629,0.105l1.091,0.125l1.07,0.041l1.049-0.063
		l1.048-0.146l1.008-0.23l0.986-0.314l0.943-0.397l0.901-0.462l0.859-0.566l0.817-0.607l0.777-0.692l0.691-0.776l0.649-0.816
		l0.588-0.883l0.504-0.943l0.439-1.007l-12.503-8.454H77.541L77.541,110.018z"/>
</g>
</svg>
