<?xml version="1.0" encoding="utf-8"?>
<!-- Generator: Adobe Illustrator 16.0.3, SVG Export Plug-In . SVG Version: 6.00 Build 0)  -->
<!DOCTYPE svg PUBLIC "-//W3C//DTD SVG 1.1//EN" "http://www.w3.org/Graphics/SVG/1.1/DTD/svg11.dtd">
<svg version="1.1" id="Layer_1" xmlns="http://www.w3.org/2000/svg" xmlns:xlink="http://www.w3.org/1999/xlink" x="0px" y="0px"
	 width="52.396px" height="104.15px" viewBox="47.822 22.952 52.396 104.15" enable-background="new 47.822 22.952 52.396 104.15"
	 xml:space="preserve">
<g>
	<path fill="#FFFFFF" d="M76.533,99.883l7.488-24.293H65.016l7.469,24.293H76.533L76.533,99.883z M84.631,73.555l7.49-24.294h-9.504
		l-4.051,12.147l-4.049-9.105l-4.049,9.105L66.421,49.26h-9.504l7.469,24.294h6.084l4.049-9.105l4.049,9.105L84.631,73.555
		 M76.533,73.555v-2.014h-4.051v2.014H76.533 M92.73,47.246l1.572-5.056H83.625v-5.077h12.229l1.238-4.049H83.625v-5.056h15.021
		l1.572-5.056H75.527v24.294H92.73 M73.513,47.246V35.099h-8.119v5.057h3.042v2.035h-4.385L59.33,28.008h9.104v1.007h5.077v-6.063
		H48.82l7.471,24.294H73.513 M77.541,110.018l9.125,6.063l0.021-0.104l0.084-0.63l0.043-0.608l0.021-0.629l-0.021-0.607
		l-0.043-0.631l-0.063-0.586l-0.105-0.609l-0.125-0.588l-0.355-1.133l-0.439-1.11l-0.547-1.05l-0.314-0.481l-0.336-0.503
		l-0.354-0.462l-0.398-0.461l-0.398-0.421l-0.418-0.42l-0.441-0.397l-0.461-0.378l-0.481-0.335l-0.505-0.336l-0.523-0.313
		l-0.523-0.272l-0.547-0.253l-0.563-0.229l-0.589-0.211l-0.608-0.168l-0.607-0.146l-0.607-0.104l-1.091-0.126l-1.092-0.042
		l-1.049,0.063l-1.027,0.146l-1.027,0.229l-0.965,0.314l-0.966,0.398l-0.901,0.462l-0.86,0.565l-0.818,0.607l-0.755,0.691
		l-0.714,0.756l-0.648,0.84l-0.566,0.881l-0.522,0.943l-0.421,1.008l12.505,8.454H71.49l-9.104-6.063l-0.021,0.104l-0.084,0.631
		l-0.063,0.607l-0.021,0.629l0.021,0.607l0.042,0.607l0.084,0.609l0.084,0.606l0.146,0.588l0.336,1.134l0.439,1.111l0.566,1.025
		l0.313,0.504l0.335,0.506l0.356,0.461l0.378,0.462l0.396,0.419l0.421,0.42l0.439,0.396l0.482,0.379l0.462,0.336l0.503,0.336
		l0.522,0.314l0.545,0.271l0.546,0.252l0.565,0.23l0.587,0.209l0.587,0.168l0.608,0.146l0.629,0.104l1.091,0.125l1.07,0.041
		l1.049-0.063l1.048-0.146l1.008-0.229l0.986-0.313l0.943-0.397l0.9-0.462l0.859-0.566l0.817-0.607l0.776-0.691l0.691-0.775
		l0.648-0.816l0.588-0.883l0.505-0.943l0.438-1.008l-12.503-8.453h4.03V110.018z"/>
</g>
</svg>
