<svg xmlns="http://www.w3.org/2000/svg" xmlns:xlink="http://www.w3.org/1999/xlink" version="1.1" x="0px" y="0px" viewBox="0 0 100 125" enable-background="new 0 0 100 100" xml:space="preserve"><g><rect y="-36" width="100" height="30"/><text transform="matrix(1 0 0 1 66 -19.5)" fill="#000000" font-family="'Helvetica'" font-size="2.4">http://thenounproject.com</text><text transform="matrix(1 0 0 1 7.166 -24.5)"><tspan x="0" y="0" fill="#000000" font-family="'Helvetica-Bold'" font-size="6.1578">The Noun Project</tspan><tspan x="1.12" y="4.8" fill="#000000" font-family="'Helvetica-Bold'" font-size="4">Icon Template</tspan></text><line fill="#000000" stroke="#FFFFFF" stroke-miterlimit="10" x1="8" y1="-14.5" x2="18" y2="-14.5"/></g><g><g><path style="fill: #bc5f5f" d="M72.888,73.74H28.286c-4.57,0-8.289-3.719-8.289-8.289V41.829c0-4.57,3.719-8.289,8.289-8.289h44.602    c4.571,0,8.29,3.719,8.29,8.289v23.623C81.178,70.021,77.459,73.74,72.888,73.74z M28.286,36.473    c-2.953,0-5.356,2.402-5.356,5.355v23.623c0,2.953,2.403,5.355,5.356,5.355h44.602c2.954,0,5.356-2.402,5.356-5.355V41.829    c0-2.953-2.402-5.355-5.356-5.355H28.286z"/><path style="fill: #bc5f5f" d="M55.771,36.135H45.403c-1.83,0-3.318-1.488-3.318-3.318V27.68c0-1.83,1.488-3.318,3.318-3.318h10.369    c1.829,0,3.317,1.488,3.317,3.318v5.137C59.089,34.647,57.601,36.135,55.771,36.135z M45.403,27.293    c-0.213,0-0.386,0.174-0.386,0.387v5.137c0,0.213,0.173,0.387,0.386,0.387h10.368c0.213,0,0.385-0.174,0.385-0.387V27.68    c0-0.213-0.172-0.387-0.384-0.387H45.403z"/><path style="fill: #bc5f5f" d="M50.586,62.272c-4.759,0-8.63-3.873-8.63-8.631c0-4.76,3.871-8.631,8.63-8.631c4.758,0,8.63,3.871,8.63,8.631    C59.217,58.399,55.345,62.272,50.586,62.272z M50.586,47.944c-3.142,0-5.697,2.555-5.697,5.698c0,3.141,2.556,5.697,5.697,5.697    c3.141,0,5.698-2.557,5.698-5.697C56.284,50.499,53.728,47.944,50.586,47.944z"/></g></g></svg>