<?xml version="1.0" encoding="UTF-8" standalone="no"?>
<svg width="100%" height="100%" viewBox="0 0 640 360" version="1.1" xmlns="http://www.w3.org/2000/svg" xml:space="preserve">
    <g>
        <rect x="0" y="0" width="640" height="360" style="fill:rgb(212,0,38);"/>
    </g>
    <g transform="matrix(0.335076,0,0,0.335076,320,180)">
        <g transform="matrix(1,0,0,1,-186.45,-375.2)">
            <path d="M179.2,631.7L209.3,631.7L274.5,675.8C275.3,671 275.8,666.1 275.8,661C275.8,611.6 235.8,571.6 186.4,571.6C148.3,571.6 115.9,595.4 103,628.9L193.8,690.3L163.7,690.3L98.3,646.1C97.5,651 97,655.9 97,661C97,710.4 137,750.4 186.4,750.4C224.5,750.4 256.9,726.5 269.8,693L179.2,631.7Z" style="fill:white;"/>
            <path d="M201.1,558.2L255.4,381.9L117.5,381.9L171.7,558.2L201.1,558.2Z" style="fill:white;"/>
            <path d="M259.8,367.2L314.2,190.9L245.2,190.9L215.8,279L186.5,213L157.1,279L127.7,190.9L58.8,190.9L112.9,367.2L157.1,367.2L186.5,301.1L215.8,367.2L259.8,367.2" style="fill:white;"/>
            <path d="M201.1,367.2L201.1,352.5L171.7,352.5L171.7,367.2L201.1,367.2" style="fill:white;"/>
            <path d="M318.6,176.3L330,139.6L252.5,139.6L252.5,102.7L341.3,102.7L350.3,73.4L252.5,73.4L252.5,36.7L361.5,36.7L372.9,0L193.8,0L193.8,176.3L318.6,176.3" style="fill:white;"/>
            <path d="M179.2,176.3L179.2,88.1L120.3,88.1L120.3,124.8L142.3,124.8L142.3,139.6L110.5,139.6L76.3,36.7L142.3,36.7L142.3,44L179.2,44L179.2,0L0,0L54.2,176.3L179.2,176.3" style="fill:white;"/>
        </g>
    </g>
</svg>
