<?xml version="1.0" encoding="utf-8"?>
<!-- Generator: Adobe Illustrator 22.1.0, SVG Export Plug-In . SVG Version: 6.00 Build 0)  -->
<svg version="1.1" id="Layer_1" xmlns="http://www.w3.org/2000/svg" xmlns:xlink="http://www.w3.org/1999/xlink" x="0px" y="0px"
	 width="2604px" height="684px" viewBox="0 0 2604 684" style="enable-background:new 0 0 2604 684;" xml:space="preserve">
<style type="text/css">
	.st0{fill:#171F53;}
	.st1{fill:#EE740B;}
</style>
<g>
	<g>
		<path class="st0" d="M85.5,391.5c-10.2,0-18.3-8.2-19.9-17.1L17.1,124.3c-1.6-8.2,4.5-15.9,13.1-15.9h30.9
			c9.4,0,17.5,6.9,19.2,15.9L95,204.5c8.1,44,10.1,88.4,11.8,111.6h0.5c1.6-22,5.3-56.6,14.6-105.1l16.7-86.7
			c1.6-8.6,10.2-15.9,19.6-15.9h19.6c9.4,0,17.9,7.3,19.6,15.9l16.7,86.3c6.1,31.4,11.4,74.5,14.3,105.5h0.4
			c2.5-32.5,6.6-87.5,11-112.8l13.4-79c1.7-9,9.8-15.9,19.2-15.9h29.3c8.6,0,14.7,7.8,13.1,15.9l-49.7,251.3
			c-1.6,8.9-10.2,15.9-19.6,15.9h-30.1c-9.4,0-17.9-6.6-19.9-17.5l-19.2-101c-5.3-28.9-8.2-59.5-9.4-77.8h-0.8
			c-0.8,17.1-4.9,54.6-9.4,77.4l-19.9,103.1c-1.6,8.9-10.2,15.9-19.5,15.9H85.5z"/>
		<path class="st0" d="M424.8,396.8c-69.6,0-101-32.2-101-110.4c0-78.6,32.6-108.3,87.2-108.3c62.7,0,87.2,34.2,87.2,110.8v8.6
			c0,4.5-3.6,8.2-7.7,8.2H386.1c2,37.9,12.2,46,37.5,46c13,0,23.2-3.7,32.2-8.6c7.7-4.5,17.9-2,23.2,5.3l6.9,11.5
			c4.9,7.3,2.8,17.5-4.9,22C466.3,390.6,447.2,396.8,424.8,396.8z M413,219.6c-18.4,0-25.3,9.4-26.9,46.9h53.8
			C439,233,434.9,219.6,413,219.6z"/>
		<path class="st0" d="M549.2,391.5c-8.9,0-16.3-7.4-16.3-16.3V199.6c0-9,7.4-16.3,16.3-16.3h14.2c9.4,0,17.9,6.5,20,15.9l1.6,7.8
			c12.6-17.6,30.2-27.3,50.1-27.3c2.9,0,5.7,0.4,8.6,0.8c4.1,0.4,7.4,4.5,6.5,8.6l-6.9,38.7c-0.8,5.3-6.5,8.6-11.3,7.3
			c-3.7-1.2-7.3-1.6-11.5-1.6c-13.8,0-21.1,3.2-30.1,9.7v132c0,9-7.3,16.3-16.3,16.3H549.2z"/>
		<path class="st0" d="M745.4,391.5c-9.8,0-18.4-6.6-21.6-15.5l-60.3-177.2c-2.4-7.7,2.9-15.5,11-15.5h27.8
			c9.4,0,18.3,6.5,20.7,15.5l17.9,61.5c3.7,12.6,9.3,39.9,13.8,59.8h0.8c2-17.9,8.6-48.8,12.6-63.5l16.7-57.8
			c2.4-9,11.3-15.5,20.7-15.5h26.5c8.2,0,13.9,7.7,11,15.5L784.9,376c-3.3,8.9-11.8,15.5-21.6,15.5H745.4z"/>
		<path class="st0" d="M902.4,391.5c-9,0-16.3-7.4-16.3-16.3V226.5l-7.7-2c-9.4-2-15.9-10.6-15.9-20v-4.9c0-9,7.3-16.3,16.3-16.3
			h48.8c9,0,16.3,7.3,16.3,16.3v175.5c0,9-7.3,16.3-16.3,16.3H902.4z M915,159.3c-19.6,0-34.6-15.5-34.6-34.2
			c0-19.6,15.5-35,34.2-35c19.5,0,35,15.5,35,34.6C949.6,143.8,934.1,159.3,915,159.3z"/>
		<path class="st0" d="M1005.6,391.5c-8.9,0-16.3-7.4-16.3-16.3V199.6c0-9,7.4-16.3,16.3-16.3h14.3c9.4,0,17.9,6.5,20.4,15.9
			l0.8,4.1c15.5-14.7,32.6-25.3,58.7-25.3c35.5,0,54.2,15.1,54.2,57.4v139.7c0,9-7.3,16.3-16.3,16.3h-25.3c-9,0-16.3-7.4-16.3-16.3
			V248.5c0-19.9-7.4-24.4-19.2-24.4c-12.6,0-20.3,4.5-30.1,12.2v138.9c0,9-7.3,16.3-16.3,16.3H1005.6z"/>
		<path class="st0" d="M1276.5,471.3c-58.7,0-86.8-20-86.8-54.2c0-19.2,11.9-31.4,26.9-38.7c-11.4-7.8-17.5-20-17.5-35.1
			c0-20,9.8-33.4,23.2-41.6c-17.5-11.4-25.3-30.1-25.3-55c0-44.4,25.3-68.8,81.5-68.8c12.6,0,24.4,2,34.2,5.3h48.5
			c7.7,0,14.3,6.5,14.3,14.2v0.8c0,8.6-5.3,16.3-13,19.6l-7.3,2.9c4.1,8.9,6.1,19.1,6.1,30.1c0,44-23.6,64-81.5,64
			c-8.1,0-15.4-0.4-22-1.3c-3.3,4.1-6.1,10.2-6.1,15.5c0,5.7,4.1,10.2,13.4,10.2h38.8c41.1,0,72.4,16.3,72.4,59.5
			C1376.2,446.9,1345.7,471.3,1276.5,471.3z M1244.7,386.6c-2.4,5.2-4.4,12.5-4.4,21.1c0,15.1,4.8,25.3,37.9,25.3
			c26.4,0,40.7-10.1,40.7-26c0-16.7-9.8-20.3-36.3-20.3H1244.7z M1279.7,278.2c21.6,0,27.7-9.4,27.7-29.3c0-20-4.4-30.6-27.7-30.6
			c-20.7,0-26.9,10.2-26.9,30.1C1252.9,267.6,1258.1,278.2,1279.7,278.2z"/>
		<path class="st0" d="M1467.6,396.8c-24.9,0-46.1-5.3-62-11.8c-8.2-3.6-12.3-13-8.9-21.2l5.7-13.5c3.7-8.1,13.1-12.2,21.2-8.5
			c10.6,4.9,22.4,7.7,34.7,7.7c19.1,0,28.1-5.7,28.1-18.4c0-14.6-9-17.9-35.5-25.6c-30.5-9-49.7-25.2-49.7-64.3
			c0-41.6,26.5-63.1,70.9-63.1c20.7,0,35.4,2.4,48.9,6.9c8.6,2.9,13,12.2,10.2,20.8l-3.7,11.8c-2.8,8.6-12.3,13-20.7,10.6
			c-8.9-2.9-18.4-4.1-28.5-4.1c-12.6,0-20.8,4.9-20.8,16.3c0,13.5,6.1,15.5,29.3,22c32.2,9,57,21.6,57,65.6
			C1543.7,371.5,1520.5,396.8,1467.6,396.8z"/>
	</g>
	<g>
		<path class="st1" d="M1657.9,319.7c-43.9,0-71.6-25.2-71.6-107.1c0-87.2,22.4-111.6,69.2-111.6c21.6,0,37.9,10.2,47.7,19.6v-88
			c0-8.9,7.4-16.3,16.3-16.3h24.9c8.9,0,16.2,7.4,16.2,16.3v265.6c0,9-7.3,16.3-16.2,16.3H1730c-9.3,0-17.9-6.6-20.4-15.9l-0.8-3.7
			C1693.4,311.1,1679,319.7,1657.9,319.7z M1673.8,273.7c13.4,0,22-4.9,29.4-11.4V158.4c-6.1-5.7-15.1-11.4-26.9-11.4
			c-22.8,0-28.1,11.4-28.1,64.7C1648.1,263.1,1653,273.7,1673.8,273.7z"/>
		<path class="st1" d="M1924.2,314.4c-8.9,0-13.8-5.7-15.9-16.3c-10.5,11.8-25.6,21.6-48,21.6c-43.6,0-61.6-25.7-61.6-66.8
			c0-48.5,28.5-68,90.4-68h12.6v-7.8c0-20.8-3.6-29.7-23.2-29.7c-14.2,0-27.7,4.4-39.9,10.2c-8.2,4.1-17.9,0.8-22.4-7.3l-5.3-10.2
			c-4.1-8.1-1.2-17.9,6.5-22.4c19.2-10.5,40.3-16.7,66.8-16.7c52.2,0,75,18.3,75,67.2v130c0,9-7.3,16.3-16.2,16.3H1924.2z
			 M1876.3,280.2c11.4,0,19.1-5.3,25.6-11v-48.9h-2.8c-37,0-43.1,9.4-43.1,31.8C1855.9,272.8,1861.2,280.2,1876.3,280.2z"/>
		<path class="st1" d="M2077.2,394.2c-58.7,0-86.7-19.9-86.7-54.2c0-19.1,11.8-31.4,26.8-38.7c-11.5-7.8-17.5-19.9-17.5-35.1
			c0-19.9,9.8-33.3,23.3-41.5c-17.5-11.4-25.3-30.1-25.3-55c0-44.4,25.3-68.8,81.5-68.8c12.7,0,24.5,2,34.2,5.3h48.5
			c7.7,0,14.2,6.5,14.2,14.3v0.8c0,8.6-5.3,16.3-13.1,19.6l-7.3,2.9c4.1,8.9,6.1,19.1,6.1,30.1c0,44-23.7,63.9-81.5,63.9
			c-8.2,0-15.5-0.4-22.1-1.2c-3.3,4.1-6,10.2-6,15.5c0,5.7,4.1,10.1,13.4,10.1h38.7c41.1,0,72.5,16.3,72.5,59.5
			C2177,369.8,2146.5,394.2,2077.2,394.2z M2045.5,309.5c-2.5,5.3-4.5,12.6-4.5,21.2c0,15.1,4.9,25.2,37.9,25.2
			c26.5,0,40.8-10.2,40.8-26c0-16.7-9.9-20.4-36.3-20.4H2045.5z M2080.5,201.2c21.6,0,27.7-9.4,27.7-29.4c0-20-4.4-30.5-27.7-30.5
			c-20.8,0-26.9,10.2-26.9,30.1C2053.6,190.6,2058.9,201.2,2080.5,201.2z"/>
		<path class="st1" d="M2295.7,319.7c-69.6,0-101-32.2-101-110.4c0-78.6,32.6-108.3,87.2-108.3c62.7,0,87.1,34.2,87.1,110.8v8.6
			c0,4.5-3.6,8.2-7.7,8.2H2257c2,37.8,12.2,46,37.5,46c13.1,0,23.2-3.6,32.2-8.6c7.7-4.4,17.9-2,23.2,5.3l7,11.4
			c4.9,7.4,2.8,17.5-4.9,22C2337.2,313.5,2318.1,319.7,2295.7,319.7z M2283.9,142.5c-18.3,0-25.2,9.4-26.8,46.9h53.7
			C2310,155.9,2305.9,142.5,2283.9,142.5z"/>
		<path class="st1" d="M2415.4,314.4c-8.9,0-16.3-7.3-16.3-16.3V122.5c0-9,7.3-16.3,16.3-16.3h14.2c9.4,0,17.9,6.5,20.3,15.9
			l0.9,4.1c15.4-14.7,32.6-25.2,58.6-25.2c35.4,0,54.2,15.1,54.2,57.4v139.7c0,9-7.3,16.3-16.2,16.3H2522c-8.9,0-16.2-7.3-16.2-16.3
			V171.4c0-20-7.3-24.4-19.1-24.4c-12.6,0-20.4,4.5-30.1,12.2v138.9c0,9-7.4,16.3-16.3,16.3H2415.4z"/>
	</g>
	<g>
		<path class="st0" d="M610.7,570.1l-24.3,1.6l-12.7,87l-21.3,1.4l12.7-87l-25.2,1.6l2.6-17.4l74.3-4.8L610.7,570.1z"/>
		<path class="st0" d="M680.7,588.8c0.1,1.2,0.1,2.5,0,4c-0.1,1.5-0.3,3.4-0.7,5.7l-7.8,53.8l-19.4,1.3l7.5-51.7
			c0.5-3.8,0.4-6.5-0.5-8c-0.9-1.5-2.8-2.2-5.6-2c-1.4,0.1-2.9,0.5-4.5,1.3c-1.6,0.8-3.2,1.8-4.8,3c-1.6,1.2-3.2,2.6-4.7,4.1
			c-1.5,1.5-2.9,3.1-3.9,4.8l-7.3,50.1l-19.7,1.3l12.4-84.3c0.8-5.8,1.2-10.3,1.2-13.4c0-3.1-0.3-5.7-0.9-7.8l19.6-7.7
			c0.4,0.9,0.6,2.1,0.8,3.7c0.2,1.6,0.3,3.4,0.4,5.5c0.1,2,0.1,4.1-0.1,6.3c-0.2,2.2-0.4,4.3-0.6,6.3l-1.8,12.8
			c-0.1,0.6-0.2,1.4-0.3,2.3c-0.1,0.9-0.3,1.8-0.5,2.7c-0.2,0.9-0.4,1.8-0.6,2.6c-0.2,0.8-0.4,1.4-0.5,1.8c2.7-3.3,6.1-6.2,10.5-8.6
			c4.3-2.4,8.8-3.7,13.4-4c6-0.4,10.6,0.6,13.6,3.1C678.7,580.2,680.3,583.9,680.7,588.8z"/>
		<path class="st0" d="M760.3,589.6c0.2,3.6-0.4,7-1.8,10.2c-1.4,3.3-3.7,6.2-6.7,8.8c-3.1,2.6-6.9,4.7-11.6,6.4
			c-4.7,1.7-10.2,2.8-16.5,3.2c-2.8,0.2-5,0.2-6.6,0c-1-0.1-1.9-0.3-2.6-0.4c-0.1,0.9-0.2,1.8-0.3,2.7c0,0.8-0.1,1.6-0.1,2.3
			c0,0.7,0,1.4,0,1.9c0.3,4.3,1.6,7.4,3.9,9.1c2.3,1.7,5.5,2.5,9.7,2.2c3.5-0.2,6.9-1.1,10.3-2.7c3.4-1.6,6.8-3.8,10.2-6.6l5.8,12.1
			c-4.9,3.9-9.8,6.8-14.8,8.8c-4.9,2-10.1,3.2-15.4,3.5c-9.1,0.6-16.3-1.3-21.6-5.6c-5.3-4.3-8.3-11.1-8.9-20.4
			c-0.3-4-0.1-7.9,0.5-11.9c0.6-4,1.5-7.8,2.8-11.5c1.2-3.7,2.8-7.2,4.7-10.5c1.9-3.3,4-6.3,6.4-8.9c3.5-3.9,7.4-6.8,11.6-8.6
			c4.2-1.8,8.8-2.9,13.9-3.2c3.8-0.2,7.2-0.1,10.5,0.5c3.2,0.6,6,1.6,8.4,3.1c2.4,1.5,4.3,3.5,5.8,6.1
			C759.3,582.8,760.1,586,760.3,589.6z M740.4,592.5c-0.1-2.3-0.9-4.1-2.1-5.5c-1.3-1.4-3.4-2-6.4-1.8c-3.8,0.2-6.9,1.7-9.5,4.5
			c-2.6,2.7-4.4,7.5-5.5,14.2c0.6,0.2,1.2,0.3,1.8,0.3c0.5,0.1,1.1,0.1,1.8,0.1c0.7,0,1.4,0,2.1-0.1c2.2-0.1,4.3-0.5,6.5-1
			c2.1-0.5,4.1-1.3,5.8-2.2c1.7-1,3.1-2.1,4.2-3.5C740.1,596.1,740.6,594.4,740.4,592.5z"/>
		<path class="st0" d="M875.7,553l-24.3,1.6l-12.7,87l-21.3,1.4l12.7-87l-25.2,1.6l2.6-17.4l74.3-4.8L875.7,553z"/>
		<path class="st0" d="M952.8,600.4c-0.5,3.3-1,6.3-1.6,9c-0.6,2.7-1.3,5.1-2.1,7.2c-0.8,2.1-1.8,4.1-3.1,5.9
			c-1.3,1.8-2.8,3.5-4.7,5.1c-0.9,0.9-2.1,1.9-3.6,3c-1.5,1.1-3.4,2.3-5.7,3.4c-2.4,1.1-5.2,2.2-8.7,3.1c-3.4,0.9-7.5,1.5-12.4,1.8
			c-10.1,0.6-18-0.9-23.7-4.6c-5.7-3.7-8.8-8.9-9.3-15.6c-0.2-3.6-0.1-7.2,0.5-11l10.6-72.7l21.2-1.4l-10,68.7
			c-0.4,2-0.6,3.8-0.6,5.3c0,1.5,0,2.9,0,4.1c0.1,1.9,0.6,3.4,1.3,4.7c0.8,1.2,1.8,2.2,3,2.9c1.2,0.7,2.7,1.2,4.3,1.4
			c1.6,0.2,3.2,0.3,4.9,0.2c4.7-0.3,8.6-1.7,11.6-4.2c3-2.5,4.9-5.6,5.9-9.4c0.2-0.5,0.3-1,0.4-1.5c0.1-0.5,0.2-1.1,0.3-1.7
			c0.1-0.6,0.2-1.4,0.4-2.3c0.1-0.9,0.3-2.1,0.5-3.5l9.8-66.9l21-1.4L952.8,600.4z"/>
		<path class="st0" d="M971.8,655.9l-14.2,0.9l59.8-140.5l14.2-0.9L971.8,655.9z"/>
		<path class="st0" d="M1095.5,568c0.2,3.6-0.4,7-1.8,10.2c-1.4,3.3-3.7,6.2-6.7,8.8c-3.1,2.6-6.9,4.7-11.6,6.4
			c-4.7,1.7-10.2,2.8-16.5,3.2c-2.8,0.2-5,0.2-6.5,0c-1-0.1-1.9-0.3-2.6-0.4c-0.1,0.9-0.2,1.8-0.3,2.7c0,0.8-0.1,1.6-0.1,2.3
			c0,0.7,0,1.4,0,1.8c0.3,4.3,1.6,7.4,3.9,9.1c2.3,1.7,5.5,2.5,9.7,2.2c3.5-0.2,6.9-1.1,10.3-2.8c3.4-1.6,6.8-3.8,10.2-6.6l5.8,12.1
			c-4.9,3.9-9.8,6.8-14.8,8.9c-4.9,2-10.1,3.2-15.4,3.5c-9.1,0.6-16.3-1.3-21.6-5.6c-5.3-4.3-8.3-11.1-8.9-20.4
			c-0.3-4-0.1-7.9,0.5-11.9c0.6-4,1.5-7.8,2.8-11.5c1.2-3.7,2.8-7.2,4.7-10.5c1.9-3.3,4-6.3,6.4-8.9c3.5-3.9,7.4-6.8,11.6-8.6
			c4.2-1.8,8.8-2.9,13.9-3.2c3.8-0.2,7.2-0.1,10.5,0.5c3.2,0.6,6,1.6,8.4,3.1c2.4,1.5,4.3,3.5,5.8,6.1
			C1094.4,561.2,1095.3,564.3,1095.5,568z M1075.6,570.9c-0.1-2.3-0.9-4.1-2.1-5.5c-1.3-1.4-3.4-2-6.4-1.8c-3.8,0.2-6.9,1.7-9.5,4.5
			c-2.6,2.8-4.4,7.5-5.5,14.2c0.6,0.2,1.2,0.3,1.8,0.3c0.5,0.1,1.1,0.1,1.8,0.1c0.7,0,1.4,0,2.1-0.1c2.2-0.1,4.3-0.5,6.5-1
			c2.1-0.5,4.1-1.3,5.8-2.2c1.7-1,3.1-2.1,4.2-3.5C1075.3,574.4,1075.7,572.8,1075.6,570.9z"/>
		<path class="st0" d="M1206.3,534c-2.3-1.8-4.8-3.1-7.5-3.7c-2.7-0.6-5.5-0.8-8.4-0.6c-3.5,0.2-6.9,1.3-10.3,3.2
			c-3.4,1.9-6.2,4.3-8.4,7.2c-2.1,2.7-3.9,6.1-5.4,10.2c-1.5,4.1-2.7,8.3-3.6,12.7c-0.9,4.4-1.5,8.8-1.9,13
			c-0.4,4.2-0.5,7.8-0.3,10.8c0.4,6.8,2.3,11.7,5.7,14.6c3.4,2.9,8,4.2,13.8,3.8c3.1-0.2,6.1-1,9-2.3c2.9-1.3,6.1-3.3,9.5-6l8,13
			c-4.5,3.7-9.2,6.4-14.1,8.3c-4.9,1.9-10.3,3-16.2,3.4c-11.7,0.8-20.9-1.8-27.6-7.6c-6.7-5.8-10.5-14.6-11.2-26.2
			c-0.3-4-0.2-8.1,0.3-12.5c0.5-4.4,1.2-8.7,2.3-13c1.1-4.3,2.4-8.4,4.1-12.5c1.7-4,3.6-7.7,5.8-11c5.1-7.9,11.5-14,19-18.3
			c7.5-4.4,15.5-6.8,23.9-7.3c5.1-0.3,10,0.1,14.5,1.3c4.5,1.2,8,3,10.4,5.3L1206.3,534z"/>
		<path class="st0" d="M1283.7,540.3c-0.3,1.2-0.7,2.6-1,4.2c-0.3,1.6-0.7,3.2-1,4.9c-0.3,1.7-0.7,3.4-0.9,5.1
			c-0.3,1.7-0.5,3.3-0.7,4.8l-4.2,29.2c-0.5,3.3-0.4,6.1,0.1,8.4c0.5,2.3,1.8,4.4,3.7,6.2l-15.7,13.4c-1.9-1.1-3.3-2.5-4.3-4.2
			c-1-1.7-1.7-3.3-2.1-4.8c-2.7,3.2-5.6,5.6-8.7,7.4c-3.1,1.8-6.7,2.8-10.9,3c-6.9,0.5-12.3-1.3-16-5.1c-3.8-3.9-5.9-9.8-6.4-17.7
			c-0.6-9.2,0.4-17.7,3-25.5c2.6-7.8,6-14.1,10.2-19c3.9-4.4,8.2-7.7,12.9-9.9c4.7-2.2,10.2-3.5,16.6-3.9c4.5-0.3,9-0.2,13.6,0.3
			C1276.4,537.5,1280.4,538.6,1283.7,540.3z M1261.9,553.2c-0.5-0.3-1.3-0.5-2.4-0.6c-1.1-0.2-2.1-0.2-3-0.2
			c-1.2,0.1-2.4,0.2-3.5,0.4c-1.1,0.2-2.2,0.5-3.3,1c-1.1,0.5-2.2,1.2-3.3,2.1c-1.1,0.9-2.3,2.2-3.5,3.9c-1.5,2-2.7,4.3-3.6,7.1
			c-1,2.7-1.7,5.6-2.3,8.6c-0.6,3-1,6-1.2,9.1c-0.2,3-0.2,5.8-0.1,8.2c0.2,3.4,0.9,5.9,1.9,7.4c1,1.5,2.6,2.1,4.8,2
			c1.6-0.1,3.1-0.6,4.6-1.4c1.5-0.8,2.8-1.9,4-3.1c1.2-1.2,2.3-2.5,3.2-4c0.9-1.4,1.6-2.9,2-4.3L1261.9,553.2z"/>
		<path class="st0" d="M1340.4,550.3c-1.7-0.9-3.7-1.2-5.9-1.1c-2,0.1-4.1,1-6.2,2.6c-2.2,1.6-4.7,4.5-7.5,8.7l-7.3,50.3l-19.9,1.3
			l7.4-50.8c0.8-4.8,1-8.9,0.8-12.3c-0.3-3.4-0.9-6.3-1.8-8.7l17.9-8.5c0.7,1.2,1.3,3,1.9,5.4c0.6,2.3,0.8,4.6,0.7,6.8
			c3.1-3.7,6.4-6.7,9.8-9c3.4-2.4,6.9-3.6,10.7-3.9c1.4-0.1,2.5-0.1,3.4,0.1c0.9,0.1,2.1,0.5,3.5,1.1L1340.4,550.3z"/>
		<path class="st0" d="M1414.2,547.3c0.2,3.6-0.4,7-1.8,10.2c-1.4,3.3-3.7,6.2-6.7,8.8c-3.1,2.6-6.9,4.7-11.7,6.4
			c-4.7,1.7-10.2,2.7-16.5,3.2c-2.8,0.2-5,0.2-6.6,0c-1-0.1-1.9-0.3-2.6-0.4c-0.1,0.9-0.2,1.8-0.3,2.7c0,0.8-0.1,1.6-0.1,2.3
			c0,0.7,0,1.4,0.1,1.8c0.3,4.4,1.6,7.4,3.9,9.1c2.3,1.7,5.5,2.5,9.7,2.2c3.5-0.2,6.9-1.1,10.3-2.8c3.4-1.6,6.8-3.8,10.2-6.6
			l5.8,12.1c-4.9,3.9-9.8,6.8-14.8,8.8c-4.9,2-10.1,3.2-15.4,3.5c-9.1,0.6-16.3-1.3-21.7-5.6c-5.3-4.3-8.3-11.1-8.9-20.4
			c-0.3-4-0.1-7.9,0.5-11.9c0.6-4,1.5-7.8,2.8-11.5c1.2-3.7,2.8-7.2,4.7-10.5c1.9-3.3,4-6.3,6.4-8.9c3.5-3.9,7.4-6.8,11.6-8.6
			c4.2-1.8,8.8-2.9,13.9-3.2c3.8-0.2,7.2-0.1,10.5,0.5c3.2,0.6,6,1.6,8.4,3.1c2.4,1.5,4.3,3.5,5.8,6.1
			C1413.1,540.6,1414,543.7,1414.2,547.3z M1394.3,550.3c-0.1-2.3-0.9-4.1-2.1-5.5c-1.3-1.4-3.4-2-6.4-1.8c-3.8,0.2-6.9,1.7-9.5,4.5
			c-2.6,2.7-4.4,7.5-5.5,14.2c0.6,0.2,1.2,0.3,1.8,0.3c0.5,0.1,1.1,0.1,1.8,0.1c0.7,0,1.4,0,2.1-0.1c2.2-0.1,4.3-0.5,6.5-1
			c2.1-0.5,4.1-1.3,5.8-2.2c1.7-1,3.1-2.1,4.2-3.5C1394,553.8,1394.4,552.1,1394.3,550.3z"/>
		<path class="st0" d="M1489.2,542.5c0.2,3.6-0.4,7-1.8,10.2c-1.4,3.3-3.7,6.2-6.7,8.8c-3.1,2.6-6.9,4.7-11.6,6.4
			c-4.7,1.7-10.2,2.7-16.5,3.2c-2.8,0.2-5,0.2-6.5,0c-1-0.1-1.9-0.3-2.6-0.4c-0.1,0.9-0.2,1.8-0.3,2.7c0,0.8-0.1,1.6-0.1,2.3
			c0,0.7,0,1.4,0,1.9c0.3,4.3,1.6,7.4,3.9,9.1c2.3,1.7,5.5,2.5,9.7,2.2c3.4-0.2,6.9-1.1,10.3-2.8c3.4-1.6,6.8-3.8,10.2-6.6l5.8,12.1
			c-4.9,3.9-9.8,6.8-14.8,8.8c-4.9,2-10.1,3.2-15.4,3.5c-9.1,0.6-16.3-1.3-21.7-5.6c-5.3-4.3-8.3-11.1-8.9-20.4
			c-0.2-4-0.1-7.9,0.5-11.9c0.6-4,1.5-7.8,2.8-11.5c1.2-3.7,2.8-7.2,4.7-10.5c1.9-3.3,4-6.3,6.4-8.9c3.5-3.9,7.4-6.8,11.6-8.6
			c4.2-1.8,8.8-2.9,13.9-3.2c3.8-0.2,7.2-0.1,10.5,0.5c3.2,0.6,6,1.6,8.4,3.1c2.4,1.5,4.3,3.5,5.8,6.1
			C1488.2,535.7,1489,538.8,1489.2,542.5z M1469.3,545.4c-0.1-2.3-0.9-4.1-2.1-5.5c-1.3-1.4-3.4-2-6.4-1.8c-3.8,0.2-6.9,1.7-9.5,4.5
			c-2.6,2.8-4.4,7.5-5.5,14.2c0.6,0.2,1.2,0.3,1.8,0.3c0.5,0.1,1.1,0.1,1.8,0.1c0.7,0,1.4,0,2.1-0.1c2.2-0.1,4.3-0.5,6.5-1
			c2.1-0.5,4.1-1.3,5.8-2.2c1.7-1,3.1-2.1,4.2-3.5C1469,548.9,1469.5,547.3,1469.3,545.4z"/>
		<path class="st0" d="M1543.7,537.2c-1.7-0.9-3.7-1.2-5.9-1.1c-2,0.1-4.1,1-6.2,2.6c-2.2,1.6-4.7,4.5-7.5,8.7l-7.3,50.3l-19.9,1.3
			l7.4-50.8c0.8-4.8,1-8.9,0.8-12.3c-0.3-3.4-0.9-6.3-1.8-8.7l17.9-8.5c0.7,1.3,1.3,3,1.9,5.4c0.6,2.3,0.8,4.6,0.7,6.8
			c3.1-3.7,6.4-6.7,9.8-9c3.4-2.3,6.9-3.6,10.7-3.9c1.4-0.1,2.5-0.1,3.4,0.1c0.9,0.1,2.1,0.5,3.5,1.1L1543.7,537.2z"/>
		<path class="st1" d="M1652.2,502.5l-35,2.3l-3.5,24.2l29.2-1.9l-2.5,17.1l-29.1,1.9l-4,28l38.8-2.5l-2.7,18l-60,3.9l15.3-104.4
			l58.7-3.8L1652.2,502.5z"/>
		<path class="st1" d="M1687.1,586.7l-16.5,1.1l-16.5-74l20.3-3.8l5.9,34c0.5,2.5,0.9,5.6,1.3,9.1c0.4,3.5,0.7,6.6,0.7,9
			c0.6-2.3,1.6-5.2,2.9-8.7c1.3-3.5,2.8-7.2,4.6-11.1l15-33l21.2-1.4L1687.1,586.7z"/>
		<path class="st1" d="M1790,523c0.2,3.6-0.4,7-1.8,10.2c-1.4,3.3-3.7,6.2-6.7,8.8c-3.1,2.6-6.9,4.7-11.6,6.4
			c-4.7,1.7-10.2,2.7-16.5,3.2c-2.8,0.2-5,0.2-6.5,0c-1-0.1-1.9-0.3-2.6-0.4c-0.1,0.9-0.2,1.8-0.3,2.7c-0.1,0.8-0.1,1.6-0.1,2.3
			c0,0.7,0,1.4,0,1.9c0.3,4.3,1.6,7.4,3.9,9.1c2.3,1.7,5.5,2.5,9.7,2.2c3.5-0.2,6.9-1.1,10.3-2.8c3.4-1.6,6.8-3.8,10.2-6.6l5.8,12.1
			c-4.9,3.9-9.8,6.8-14.8,8.8c-4.9,2-10.1,3.2-15.4,3.5c-9.1,0.6-16.3-1.3-21.7-5.6s-8.3-11.1-8.9-20.4c-0.3-3.9-0.1-7.9,0.5-11.9
			c0.6-4,1.5-7.8,2.8-11.5c1.3-3.7,2.8-7.2,4.7-10.5c1.9-3.3,4-6.3,6.4-8.9c3.5-3.9,7.4-6.7,11.6-8.6c4.2-1.8,8.8-2.9,13.9-3.2
			c3.8-0.2,7.2-0.1,10.5,0.5c3.2,0.6,6,1.6,8.4,3.1c2.4,1.5,4.3,3.5,5.8,6.1C1788.9,516.3,1789.8,519.4,1790,523z M1770.1,526
			c-0.1-2.3-0.9-4.1-2.1-5.5c-1.3-1.4-3.4-2-6.4-1.8c-3.8,0.2-6.9,1.7-9.5,4.5c-2.6,2.8-4.4,7.5-5.5,14.2c0.6,0.2,1.2,0.3,1.8,0.3
			c0.5,0.1,1.1,0.1,1.8,0.1c0.7,0,1.4,0,2.1-0.1c2.2-0.1,4.3-0.5,6.5-1c2.2-0.5,4.1-1.3,5.8-2.2c1.7-1,3.1-2.1,4.2-3.6
			C1769.8,529.5,1770.2,527.8,1770.1,526z"/>
		<path class="st1" d="M1865.8,512.3c0.1,1.7,0.1,3.5,0,5.4c-0.1,1.9-0.3,3.7-0.6,5.4l-7.7,52.6l-19.6,1.3l7.3-50
			c0.2-1.5,0.4-2.8,0.5-4c0.1-1.1,0.2-2.1,0.1-2.9c-0.1-1.9-0.6-3.1-1.5-3.7c-0.9-0.6-2.2-0.8-4-0.7c-2.4,0.2-4.9,1.2-7.5,3
			c-2.7,1.9-5.4,5-8.3,9.5l-7.3,50.2l-19.6,1.3l7.5-51.8c0.6-4.2,0.8-8,0.5-11.3c-0.3-3.3-0.9-6.2-1.8-8.7l17.9-8.5
			c0.3,0.6,0.7,1.4,1.1,2.5c0.4,1.1,0.7,2.2,0.9,3.4c0.2,1.2,0.4,2.3,0.6,3.5c0.2,1.1,0.2,2.1,0.2,2.9c2.9-3.7,6.4-6.7,10.4-9
			c4-2.3,8.9-3.7,14.5-4.1c4.9-0.3,8.7,0.8,11.6,3.3C1864,504.1,1865.5,507.7,1865.8,512.3z"/>
		<path class="st1" d="M1919.8,509.1l-13.2,0.9l-5.5,38.6c-0.2,1.3-0.3,2.5-0.4,3.7c0,1.1,0,2.2,0.1,3.1c0.1,2.1,0.8,3.5,1.9,4.2
			c1.1,0.7,2.8,1,5.1,0.9c0.9-0.1,2.1-0.3,3.5-0.6c1.5-0.3,2.7-0.8,3.8-1.4l0.8,12c-2.8,1.3-5.6,2.3-8.5,3c-2.9,0.7-5.6,1.2-8.2,1.3
			c-5.7,0.4-10.2-0.6-13.5-2.9c-3.3-2.3-5-5.3-5.3-9c-0.1-1.4-0.1-2.9-0.1-4.6c0-1.7,0.2-3.4,0.5-5.2l6.1-41.8l-7.6,0.5l2.1-13.8
			l7.6-0.5c0.5-3.8,1-7.1,1.5-9.8c0.4-2.7,1.1-5.5,2-8.5l20.6-6.4c-0.9,3.5-1.7,7.3-2.5,11.4c-0.8,4.1-1.5,8.1-2.1,12l17.6-1.1
			L1919.8,509.1z"/>
		<path class="st1" d="M1977.5,509.9c-3.5-1.8-6.8-2.9-9.9-3.4c-3.1-0.5-6.1-0.7-9-0.5c-3.3,0.2-5.9,1-8,2.4c-2.1,1.4-3,3.4-2.8,6.2
			c0.2,3.2,3,5.5,8.5,7l8.8,2.6c1.9,0.6,3.8,1.3,5.7,2.3c1.9,1,3.6,2.2,5.1,3.6c1.5,1.4,2.7,3,3.7,5c1,1.9,1.6,4.1,1.8,6.6
			c0.2,3.8-0.3,7.4-1.5,11c-1.3,3.6-3.3,6.7-6.2,9.6c-2.9,2.8-6.6,5.1-11,7c-4.4,1.8-9.8,2.9-16,3.3c-5.6,0.4-10.9-0.1-15.9-1.3
			c-4.9-1.2-9.7-3-14.2-5.3l7.1-15c1.6,1,3.3,1.9,5.3,2.7c2,0.8,4.1,1.5,6.2,2.1c2.2,0.6,4.4,1,6.7,1.3c2.3,0.3,4.5,0.4,6.7,0.2
			c3.3-0.2,6-1.3,8.1-3.4c2.1-2,3.1-4.3,3-6.9c-0.1-2-1-3.4-2.7-4.4c-1.7-0.9-4.2-1.8-7.4-2.7l-8.6-2.4c-4-1.1-7.5-3.1-10.4-6
			c-2.9-2.9-4.5-7-4.8-12.2c-0.2-3.3,0.2-6.5,1.3-9.7c1.1-3.2,3-6.1,5.6-8.7c2.7-2.6,6.1-4.8,10.4-6.6c4.3-1.8,9.6-2.8,15.8-3.3
			c5-0.3,9.7,0,14.1,1c4.3,1,8.1,2.4,11.4,4.2L1977.5,509.9z"/>
	</g>
</g>
</svg>
